<mxfile host="65bd71144e">
    <diagram name="test_usecase" id="wWi6eMNq2vjuYMSVd9uw">
        <mxGraphModel dx="1061" dy="1169" grid="1" gridSize="10" guides="1" tooltips="1" connect="1" arrows="1" fold="1" page="1" pageScale="1" pageWidth="827" pageHeight="1169" math="0" shadow="0">
            <root>
                <mxCell id="ATrB6RW2ctR1J46a8i9--0"/>
                <mxCell id="ATrB6RW2ctR1J46a8i9--1" parent="ATrB6RW2ctR1J46a8i9--0"/>
                <mxCell id="ATrB6RW2ctR1J46a8i9--2" value="User" style="shape=umlActor;verticalLabelPosition=bottom;verticalAlign=top;html=1;outlineConnect=0;" vertex="1" parent="ATrB6RW2ctR1J46a8i9--1">
                    <mxGeometry x="10" y="10" width="30" height="60" as="geometry"/>
                </mxCell>
                <mxCell id="ATrB6RW2ctR1J46a8i9--6" style="edgeStyle=none;html=1;entryX=0;entryY=0.5;entryDx=0;entryDy=0;" edge="1" parent="ATrB6RW2ctR1J46a8i9--1" source="ATrB6RW2ctR1J46a8i9--7" target="ATrB6RW2ctR1J46a8i9--10">
                    <mxGeometry relative="1" as="geometry"/>
                </mxCell>
                <mxCell id="ATrB6RW2ctR1J46a8i9--7" value="&lt;b&gt;Use case&lt;/b&gt;&lt;br&gt;&amp;nbsp;room_list()&lt;br&gt;price_all()" style="rounded=1;whiteSpace=wrap;html=1;fillColor=#f8cecc;strokeColor=#b85450;" vertex="1" parent="ATrB6RW2ctR1J46a8i9--1">
                    <mxGeometry x="240" y="10" width="120" height="60" as="geometry"/>
                </mxCell>
                <mxCell id="ATrB6RW2ctR1J46a8i9--10" value="&lt;b&gt;Repository&lt;/b&gt;&lt;br&gt;&lt;font style=&quot;font-size: 14px;&quot;&gt;&lt;b&gt;Mock&lt;/b&gt;&lt;/font&gt;" style="rounded=1;whiteSpace=wrap;html=1;" vertex="1" parent="ATrB6RW2ctR1J46a8i9--1">
                    <mxGeometry x="420" y="10" width="120" height="60" as="geometry"/>
                </mxCell>
                <mxCell id="ATrB6RW2ctR1J46a8i9--11" value="" style="edgeStyle=none;html=1;startArrow=none;startFill=0;endArrow=classic;endFill=1;" edge="1" parent="ATrB6RW2ctR1J46a8i9--1" source="ATrB6RW2ctR1J46a8i9--13" target="ATrB6RW2ctR1J46a8i9--7">
                    <mxGeometry relative="1" as="geometry"/>
                </mxCell>
                <mxCell id="ATrB6RW2ctR1J46a8i9--13" value="&lt;b&gt;UI&lt;br&gt;&lt;/b&gt;CLI" style="rounded=1;whiteSpace=wrap;html=1;" vertex="1" parent="ATrB6RW2ctR1J46a8i9--1">
                    <mxGeometry x="70" y="10" width="120" height="60" as="geometry"/>
                </mxCell>
                <mxCell id="ATrB6RW2ctR1J46a8i9--32" value="&lt;b&gt;UT&lt;/b&gt;" style="rounded=0;whiteSpace=wrap;html=1;fontSize=12;fillColor=none;" vertex="1" parent="ATrB6RW2ctR1J46a8i9--1">
                    <mxGeometry x="255" y="119" width="90" height="56" as="geometry"/>
                </mxCell>
                <mxCell id="ATrB6RW2ctR1J46a8i9--34" value="" style="endArrow=block;html=1;fontSize=12;endFill=1;strokeWidth=2;fillColor=#f8cecc;strokeColor=#b85450;" edge="1" parent="ATrB6RW2ctR1J46a8i9--1">
                    <mxGeometry width="50" height="50" relative="1" as="geometry">
                        <mxPoint x="280" y="120" as="sourcePoint"/>
                        <mxPoint x="280" y="70" as="targetPoint"/>
                    </mxGeometry>
                </mxCell>
                <mxCell id="3wC3QGF9N3DyDC71SmnC-1" value="" style="endArrow=none;html=1;fontSize=12;endFill=0;strokeWidth=2;fillColor=#f8cecc;strokeColor=#b85450;startArrow=block;startFill=1;" edge="1" parent="ATrB6RW2ctR1J46a8i9--1">
                    <mxGeometry width="50" height="50" relative="1" as="geometry">
                        <mxPoint x="320" y="120" as="sourcePoint"/>
                        <mxPoint x="320" y="70" as="targetPoint"/>
                    </mxGeometry>
                </mxCell>
                <mxCell id="yNdUPYeuLznMamXGMDb6-0" value="&lt;b&gt;Mock&lt;br&gt;&lt;/b&gt;list()が呼ばれたら固定値を返す" style="text;html=1;strokeColor=none;fillColor=none;align=left;verticalAlign=middle;whiteSpace=wrap;rounded=0;fontSize=10;" vertex="1" parent="ATrB6RW2ctR1J46a8i9--1">
                    <mxGeometry x="420" y="80" width="180" height="30" as="geometry"/>
                </mxCell>
            </root>
        </mxGraphModel>
    </diagram>
    <diagram name="test" id="PuspWn44-Ab7uIsciziT">
        <mxGraphModel dx="965" dy="1063" grid="1" gridSize="10" guides="1" tooltips="1" connect="1" arrows="1" fold="1" page="1" pageScale="1" pageWidth="827" pageHeight="1169" math="0" shadow="0">
            <root>
                <mxCell id="Yg122bkpTxCoB6np4cLm-0"/>
                <mxCell id="Yg122bkpTxCoB6np4cLm-1" parent="Yg122bkpTxCoB6np4cLm-0"/>
                <mxCell id="Yg122bkpTxCoB6np4cLm-2" value="User" style="shape=umlActor;verticalLabelPosition=bottom;verticalAlign=top;html=1;outlineConnect=0;" vertex="1" parent="Yg122bkpTxCoB6np4cLm-1">
                    <mxGeometry x="10" y="10" width="30" height="60" as="geometry"/>
                </mxCell>
                <mxCell id="Yg122bkpTxCoB6np4cLm-3" style="edgeStyle=none;html=1;entryX=0.5;entryY=1;entryDx=0;entryDy=0;endArrow=block;endFill=0;" edge="1" parent="Yg122bkpTxCoB6np4cLm-1" source="Yg122bkpTxCoB6np4cLm-5" target="Yg122bkpTxCoB6np4cLm-10">
                    <mxGeometry relative="1" as="geometry"/>
                </mxCell>
                <mxCell id="Yg122bkpTxCoB6np4cLm-4" value="" style="edgeStyle=none;html=1;endArrow=none;endFill=0;startArrow=none;startFill=0;entryX=0;entryY=0.5;entryDx=0;entryDy=0;entryPerimeter=0;" edge="1" parent="Yg122bkpTxCoB6np4cLm-1" source="Yg122bkpTxCoB6np4cLm-5" target="Yg122bkpTxCoB6np4cLm-15">
                    <mxGeometry relative="1" as="geometry">
                        <mxPoint x="600" y="140" as="targetPoint"/>
                    </mxGeometry>
                </mxCell>
                <mxCell id="Yg122bkpTxCoB6np4cLm-5" value="&lt;b&gt;&amp;nbsp;Repository&lt;/b&gt;&lt;br&gt;list()&lt;br&gt;add()" style="rounded=1;whiteSpace=wrap;html=1;fillColor=#f8cecc;strokeColor=#b85450;" vertex="1" parent="Yg122bkpTxCoB6np4cLm-1">
                    <mxGeometry x="420" y="110" width="120" height="60" as="geometry"/>
                </mxCell>
                <mxCell id="Yg122bkpTxCoB6np4cLm-6" style="edgeStyle=none;html=1;entryX=0;entryY=0.5;entryDx=0;entryDy=0;" edge="1" parent="Yg122bkpTxCoB6np4cLm-1" source="Yg122bkpTxCoB6np4cLm-7" target="Yg122bkpTxCoB6np4cLm-10">
                    <mxGeometry relative="1" as="geometry"/>
                </mxCell>
                <mxCell id="Yg122bkpTxCoB6np4cLm-7" value="&lt;b&gt;Use case&lt;/b&gt;&lt;br&gt;&amp;nbsp;room_list()&lt;br&gt;price_all()" style="rounded=1;whiteSpace=wrap;html=1;" vertex="1" parent="Yg122bkpTxCoB6np4cLm-1">
                    <mxGeometry x="240" y="10" width="120" height="60" as="geometry"/>
                </mxCell>
                <mxCell id="Yg122bkpTxCoB6np4cLm-10" value="&lt;b&gt;&amp;lt;Interface&amp;gt;&amp;nbsp;&lt;br&gt;Repository&lt;/b&gt;&lt;br&gt;list()&lt;br&gt;add()" style="rounded=1;whiteSpace=wrap;html=1;" vertex="1" parent="Yg122bkpTxCoB6np4cLm-1">
                    <mxGeometry x="420" y="10" width="120" height="60" as="geometry"/>
                </mxCell>
                <mxCell id="Yg122bkpTxCoB6np4cLm-11" value="" style="edgeStyle=none;html=1;startArrow=none;startFill=0;endArrow=classic;endFill=1;" edge="1" parent="Yg122bkpTxCoB6np4cLm-1" source="Yg122bkpTxCoB6np4cLm-13" target="Yg122bkpTxCoB6np4cLm-7">
                    <mxGeometry relative="1" as="geometry"/>
                </mxCell>
                <mxCell id="Yg122bkpTxCoB6np4cLm-12" value="" style="rounded=0;whiteSpace=wrap;html=1;fillColor=none;dashed=1;" vertex="1" parent="Yg122bkpTxCoB6np4cLm-1">
                    <mxGeometry x="400" y="90" width="320" height="100" as="geometry"/>
                </mxCell>
                <mxCell id="Yg122bkpTxCoB6np4cLm-13" value="&lt;b&gt;UI&lt;br&gt;&lt;/b&gt;CLI" style="rounded=1;whiteSpace=wrap;html=1;" vertex="1" parent="Yg122bkpTxCoB6np4cLm-1">
                    <mxGeometry x="70" y="10" width="120" height="60" as="geometry"/>
                </mxCell>
                <mxCell id="Yg122bkpTxCoB6np4cLm-14" value="&lt;font style=&quot;font-size: 10px;&quot;&gt;Storage&lt;/font&gt;" style="text;html=1;strokeColor=none;fillColor=none;align=left;verticalAlign=top;whiteSpace=wrap;rounded=0;dashed=1;spacing=0;" vertex="1" parent="Yg122bkpTxCoB6np4cLm-1">
                    <mxGeometry x="402" y="86" width="130" height="30" as="geometry"/>
                </mxCell>
                <mxCell id="Yg122bkpTxCoB6np4cLm-15" value="Python&lt;br&gt;List" style="shape=note;whiteSpace=wrap;html=1;backgroundOutline=1;darkOpacity=0.05;fontSize=10;fillColor=none;size=14;" vertex="1" parent="Yg122bkpTxCoB6np4cLm-1">
                    <mxGeometry x="610" y="115" width="80" height="50" as="geometry"/>
                </mxCell>
                <mxCell id="9Zfn535-dZ_lmKa3O5yN-4" value="&lt;b&gt;UT&lt;/b&gt;" style="rounded=0;whiteSpace=wrap;html=1;fontSize=12;fillColor=none;" vertex="1" parent="Yg122bkpTxCoB6np4cLm-1">
                    <mxGeometry x="270" y="116" width="90" height="56" as="geometry"/>
                </mxCell>
                <mxCell id="9Zfn535-dZ_lmKa3O5yN-6" value="" style="endArrow=none;html=1;fontSize=12;entryX=0.063;entryY=0.7;entryDx=0;entryDy=0;entryPerimeter=0;endFill=0;startArrow=block;startFill=1;strokeWidth=2;fillColor=#f8cecc;strokeColor=#b85450;" edge="1" parent="Yg122bkpTxCoB6np4cLm-1" target="Yg122bkpTxCoB6np4cLm-12">
                    <mxGeometry width="50" height="50" relative="1" as="geometry">
                        <mxPoint x="360" y="160" as="sourcePoint"/>
                        <mxPoint x="399.91999999999996" y="160" as="targetPoint"/>
                    </mxGeometry>
                </mxCell>
                <mxCell id="9Zfn535-dZ_lmKa3O5yN-7" value="" style="endArrow=block;html=1;fontSize=12;entryX=0.063;entryY=0.7;entryDx=0;entryDy=0;entryPerimeter=0;endFill=1;strokeWidth=2;fillColor=#f8cecc;strokeColor=#b85450;" edge="1" parent="Yg122bkpTxCoB6np4cLm-1">
                    <mxGeometry width="50" height="50" relative="1" as="geometry">
                        <mxPoint x="360" y="130" as="sourcePoint"/>
                        <mxPoint x="420.15999999999997" y="130" as="targetPoint"/>
                    </mxGeometry>
                </mxCell>
            </root>
        </mxGraphModel>
    </diagram>
    <diagram name="Copy of Page-1" id="FLyr8c3u-lGxUgxWt9Q9">
        <mxGraphModel dx="1061" dy="1169" grid="1" gridSize="10" guides="1" tooltips="1" connect="1" arrows="1" fold="1" page="1" pageScale="1" pageWidth="827" pageHeight="1169" math="0" shadow="0">
            <root>
                <mxCell id="ORdTm1MxyjHuny5dtfXB-0"/>
                <mxCell id="ORdTm1MxyjHuny5dtfXB-1" parent="ORdTm1MxyjHuny5dtfXB-0"/>
                <mxCell id="ORdTm1MxyjHuny5dtfXB-2" value="User" style="shape=umlActor;verticalLabelPosition=bottom;verticalAlign=top;html=1;outlineConnect=0;" vertex="1" parent="ORdTm1MxyjHuny5dtfXB-1">
                    <mxGeometry x="10" y="10" width="30" height="60" as="geometry"/>
                </mxCell>
                <mxCell id="ORdTm1MxyjHuny5dtfXB-3" style="edgeStyle=none;html=1;endArrow=block;endFill=0;" edge="1" parent="ORdTm1MxyjHuny5dtfXB-1" source="ORdTm1MxyjHuny5dtfXB-5">
                    <mxGeometry relative="1" as="geometry">
                        <mxPoint x="480" y="70" as="targetPoint"/>
                    </mxGeometry>
                </mxCell>
                <mxCell id="ORdTm1MxyjHuny5dtfXB-4" value="" style="edgeStyle=none;html=1;endArrow=none;endFill=0;startArrow=none;startFill=0;entryX=0;entryY=0.5;entryDx=0;entryDy=0;entryPerimeter=0;" edge="1" parent="ORdTm1MxyjHuny5dtfXB-1" source="ORdTm1MxyjHuny5dtfXB-5" target="ORdTm1MxyjHuny5dtfXB-15">
                    <mxGeometry relative="1" as="geometry">
                        <mxPoint x="680" y="142" as="targetPoint"/>
                    </mxGeometry>
                </mxCell>
                <mxCell id="ORdTm1MxyjHuny5dtfXB-5" value="&lt;b&gt;&amp;nbsp;Repository&lt;/b&gt;&lt;br&gt;list()&lt;br&gt;add()" style="rounded=1;whiteSpace=wrap;html=1;" vertex="1" parent="ORdTm1MxyjHuny5dtfXB-1">
                    <mxGeometry x="500" y="112" width="120" height="60" as="geometry"/>
                </mxCell>
                <mxCell id="ORdTm1MxyjHuny5dtfXB-6" style="edgeStyle=none;html=1;entryX=0;entryY=0.5;entryDx=0;entryDy=0;" edge="1" parent="ORdTm1MxyjHuny5dtfXB-1" source="ORdTm1MxyjHuny5dtfXB-7" target="ORdTm1MxyjHuny5dtfXB-10">
                    <mxGeometry relative="1" as="geometry"/>
                </mxCell>
                <mxCell id="ORdTm1MxyjHuny5dtfXB-7" value="&lt;b&gt;Use case&lt;/b&gt;&lt;br&gt;&amp;nbsp;room_list()&lt;br&gt;price_all()" style="rounded=1;whiteSpace=wrap;html=1;" vertex="1" parent="ORdTm1MxyjHuny5dtfXB-1">
                    <mxGeometry x="240" y="10" width="120" height="60" as="geometry"/>
                </mxCell>
                <mxCell id="ORdTm1MxyjHuny5dtfXB-10" value="&lt;b&gt;&amp;lt;Interface&amp;gt;&amp;nbsp;&lt;br&gt;Repository&lt;/b&gt;&lt;br&gt;list()&lt;br&gt;add()" style="rounded=1;whiteSpace=wrap;html=1;" vertex="1" parent="ORdTm1MxyjHuny5dtfXB-1">
                    <mxGeometry x="420" y="10" width="120" height="60" as="geometry"/>
                </mxCell>
                <mxCell id="ORdTm1MxyjHuny5dtfXB-11" value="" style="edgeStyle=none;html=1;startArrow=none;startFill=0;endArrow=classic;endFill=1;" edge="1" parent="ORdTm1MxyjHuny5dtfXB-1" source="ORdTm1MxyjHuny5dtfXB-13" target="ORdTm1MxyjHuny5dtfXB-7">
                    <mxGeometry relative="1" as="geometry"/>
                </mxCell>
                <mxCell id="ORdTm1MxyjHuny5dtfXB-12" value="" style="rounded=0;whiteSpace=wrap;html=1;fillColor=none;dashed=1;" vertex="1" parent="ORdTm1MxyjHuny5dtfXB-1">
                    <mxGeometry x="480" y="92" width="320" height="100" as="geometry"/>
                </mxCell>
                <mxCell id="ORdTm1MxyjHuny5dtfXB-13" value="&lt;b&gt;UI&lt;br&gt;&lt;/b&gt;CLI" style="rounded=1;whiteSpace=wrap;html=1;" vertex="1" parent="ORdTm1MxyjHuny5dtfXB-1">
                    <mxGeometry x="70" y="10" width="120" height="60" as="geometry"/>
                </mxCell>
                <mxCell id="ORdTm1MxyjHuny5dtfXB-15" value="Python&lt;br&gt;List" style="shape=note;whiteSpace=wrap;html=1;backgroundOutline=1;darkOpacity=0.05;fontSize=10;fillColor=none;size=14;" vertex="1" parent="ORdTm1MxyjHuny5dtfXB-1">
                    <mxGeometry x="690" y="117" width="80" height="50" as="geometry"/>
                </mxCell>
                <mxCell id="ORdTm1MxyjHuny5dtfXB-32" value="&lt;b&gt;できること&lt;br&gt;&lt;/b&gt;・部屋のリストを取得する&lt;br&gt;・家賃の合計を取得する" style="text;html=1;strokeColor=none;fillColor=none;align=left;verticalAlign=middle;whiteSpace=wrap;rounded=0;fontSize=10;" vertex="1" parent="ORdTm1MxyjHuny5dtfXB-1">
                    <mxGeometry x="240" y="80" width="130" height="30" as="geometry"/>
                </mxCell>
                <mxCell id="XfV-kZfMZ803vIxkp_8o-0" value="&lt;b&gt;UI&lt;br&gt;&lt;/b&gt;Rest API" style="rounded=1;whiteSpace=wrap;html=1;fillColor=#f5f5f5;fontColor=#333333;strokeColor=#666666;" vertex="1" parent="ORdTm1MxyjHuny5dtfXB-1">
                    <mxGeometry x="70" y="110" width="120" height="60" as="geometry"/>
                </mxCell>
                <mxCell id="XfV-kZfMZ803vIxkp_8o-2" value="" style="edgeStyle=none;html=1;startArrow=none;startFill=0;endArrow=classic;endFill=1;exitX=1;exitY=0.5;exitDx=0;exitDy=0;entryX=0;entryY=0.5;entryDx=0;entryDy=0;" edge="1" parent="ORdTm1MxyjHuny5dtfXB-1" source="XfV-kZfMZ803vIxkp_8o-0" target="ORdTm1MxyjHuny5dtfXB-7">
                    <mxGeometry relative="1" as="geometry">
                        <mxPoint x="200" y="50" as="sourcePoint"/>
                        <mxPoint x="250" y="50" as="targetPoint"/>
                    </mxGeometry>
                </mxCell>
                <mxCell id="XfV-kZfMZ803vIxkp_8o-3" value="" style="edgeStyle=none;html=1;endArrow=none;endFill=0;startArrow=none;startFill=0;entryX=0;entryY=0.5;entryDx=0;entryDy=0;entryPerimeter=0;" edge="1" parent="ORdTm1MxyjHuny5dtfXB-1" source="XfV-kZfMZ803vIxkp_8o-4">
                    <mxGeometry relative="1" as="geometry">
                        <mxPoint x="610" y="264" as="targetPoint"/>
                    </mxGeometry>
                </mxCell>
                <mxCell id="XfV-kZfMZ803vIxkp_8o-4" value="&lt;b&gt;SqliteRepo&lt;br&gt;&lt;/b&gt;list()&lt;br&gt;add()" style="rounded=1;whiteSpace=wrap;html=1;fillColor=#f5f5f5;fontColor=#333333;strokeColor=#666666;" vertex="1" parent="ORdTm1MxyjHuny5dtfXB-1">
                    <mxGeometry x="420" y="234" width="120" height="60" as="geometry"/>
                </mxCell>
                <mxCell id="XfV-kZfMZ803vIxkp_8o-5" value="" style="rounded=0;whiteSpace=wrap;html=1;fillColor=none;dashed=1;" vertex="1" parent="ORdTm1MxyjHuny5dtfXB-1">
                    <mxGeometry x="400" y="214" width="320" height="100" as="geometry"/>
                </mxCell>
                <mxCell id="XfV-kZfMZ803vIxkp_8o-8" style="edgeStyle=none;html=1;endArrow=block;endFill=0;exitX=0.292;exitY=0.667;exitDx=0;exitDy=0;exitPerimeter=0;entryX=0.167;entryY=1.05;entryDx=0;entryDy=0;entryPerimeter=0;" edge="1" parent="ORdTm1MxyjHuny5dtfXB-1" target="ORdTm1MxyjHuny5dtfXB-10">
                    <mxGeometry relative="1" as="geometry">
                        <mxPoint x="439.96000000000004" y="230.01" as="sourcePoint"/>
                        <mxPoint x="440" y="80" as="targetPoint"/>
                    </mxGeometry>
                </mxCell>
                <mxCell id="XfV-kZfMZ803vIxkp_8o-9" value="&lt;font style=&quot;font-size: 12px;&quot;&gt;SQLite&lt;/font&gt;" style="shape=cylinder3;whiteSpace=wrap;html=1;boundedLbl=1;backgroundOutline=1;size=10;fontSize=14;fillColor=none;" vertex="1" parent="ORdTm1MxyjHuny5dtfXB-1">
                    <mxGeometry x="610" y="235" width="100" height="59" as="geometry"/>
                </mxCell>
            </root>
        </mxGraphModel>
    </diagram>
    <diagram id="hDIZEuD0mCkEOh4fCpwY" name="DI">
        <mxGraphModel dx="923" dy="1017" grid="1" gridSize="10" guides="1" tooltips="1" connect="1" arrows="1" fold="1" page="1" pageScale="1" pageWidth="827" pageHeight="1169" math="0" shadow="0">
            <root>
                <mxCell id="0"/>
                <mxCell id="1" parent="0"/>
                <mxCell id="Fgt_NY6O-smD3HXaezVG-1" value="User" style="shape=umlActor;verticalLabelPosition=bottom;verticalAlign=top;html=1;outlineConnect=0;" vertex="1" parent="1">
                    <mxGeometry x="10" y="10" width="30" height="60" as="geometry"/>
                </mxCell>
                <mxCell id="Fgt_NY6O-smD3HXaezVG-2" style="edgeStyle=none;html=1;entryX=0.5;entryY=1;entryDx=0;entryDy=0;endArrow=block;endFill=0;fillColor=#f8cecc;strokeColor=#b85450;" edge="1" parent="1" source="Fgt_NY6O-smD3HXaezVG-4" target="Fgt_NY6O-smD3HXaezVG-9">
                    <mxGeometry relative="1" as="geometry"/>
                </mxCell>
                <mxCell id="Fgt_NY6O-smD3HXaezVG-3" value="" style="edgeStyle=none;html=1;endArrow=none;endFill=0;startArrow=none;startFill=0;entryX=0;entryY=0.5;entryDx=0;entryDy=0;entryPerimeter=0;" edge="1" parent="1" source="Fgt_NY6O-smD3HXaezVG-4" target="Fgt_NY6O-smD3HXaezVG-14">
                    <mxGeometry relative="1" as="geometry">
                        <mxPoint x="600" y="140" as="targetPoint"/>
                    </mxGeometry>
                </mxCell>
                <mxCell id="Fgt_NY6O-smD3HXaezVG-4" value="&lt;b&gt;&amp;nbsp;Repository&lt;/b&gt;&lt;br&gt;list()&lt;br&gt;add()" style="rounded=1;whiteSpace=wrap;html=1;" vertex="1" parent="1">
                    <mxGeometry x="420" y="110" width="120" height="60" as="geometry"/>
                </mxCell>
                <mxCell id="Fgt_NY6O-smD3HXaezVG-5" style="edgeStyle=none;html=1;entryX=0;entryY=0.5;entryDx=0;entryDy=0;fillColor=#f8cecc;strokeColor=#b85450;" edge="1" parent="1" source="Fgt_NY6O-smD3HXaezVG-6" target="Fgt_NY6O-smD3HXaezVG-9">
                    <mxGeometry relative="1" as="geometry"/>
                </mxCell>
                <mxCell id="Fgt_NY6O-smD3HXaezVG-6" value="&lt;b&gt;Use case&lt;/b&gt;&lt;br&gt;&amp;nbsp;room_list()&lt;br&gt;price_all()" style="rounded=1;whiteSpace=wrap;html=1;" vertex="1" parent="1">
                    <mxGeometry x="240" y="10" width="120" height="60" as="geometry"/>
                </mxCell>
                <mxCell id="Fgt_NY6O-smD3HXaezVG-9" value="&lt;b&gt;&amp;lt;Interface&amp;gt;&amp;nbsp;&lt;br&gt;Repository&lt;/b&gt;&lt;br&gt;list()&lt;br&gt;add()" style="rounded=1;whiteSpace=wrap;html=1;fillColor=#f8cecc;strokeColor=#b85450;" vertex="1" parent="1">
                    <mxGeometry x="420" y="10" width="120" height="60" as="geometry"/>
                </mxCell>
                <mxCell id="Fgt_NY6O-smD3HXaezVG-10" value="" style="edgeStyle=none;html=1;startArrow=none;startFill=0;endArrow=classic;endFill=1;" edge="1" parent="1" source="Fgt_NY6O-smD3HXaezVG-12" target="Fgt_NY6O-smD3HXaezVG-6">
                    <mxGeometry relative="1" as="geometry"/>
                </mxCell>
                <mxCell id="Fgt_NY6O-smD3HXaezVG-11" value="" style="rounded=0;whiteSpace=wrap;html=1;fillColor=none;dashed=1;" vertex="1" parent="1">
                    <mxGeometry x="400" y="90" width="320" height="100" as="geometry"/>
                </mxCell>
                <mxCell id="Fgt_NY6O-smD3HXaezVG-12" value="&lt;b&gt;UI&lt;br&gt;&lt;/b&gt;CLI" style="rounded=1;whiteSpace=wrap;html=1;" vertex="1" parent="1">
                    <mxGeometry x="70" y="10" width="120" height="60" as="geometry"/>
                </mxCell>
                <mxCell id="Fgt_NY6O-smD3HXaezVG-13" value="&lt;font style=&quot;font-size: 10px;&quot;&gt;Storage&lt;/font&gt;" style="text;html=1;strokeColor=none;fillColor=none;align=left;verticalAlign=top;whiteSpace=wrap;rounded=0;dashed=1;spacing=0;" vertex="1" parent="1">
                    <mxGeometry x="402" y="86" width="130" height="30" as="geometry"/>
                </mxCell>
                <mxCell id="Fgt_NY6O-smD3HXaezVG-14" value="Python&lt;br&gt;List" style="shape=note;whiteSpace=wrap;html=1;backgroundOutline=1;darkOpacity=0.05;fontSize=10;fillColor=none;size=14;" vertex="1" parent="1">
                    <mxGeometry x="610" y="115" width="80" height="50" as="geometry"/>
                </mxCell>
            </root>
        </mxGraphModel>
    </diagram>
    <diagram id="-iLemXBKHY98HL1bpzkQ" name="Page-1">
        <mxGraphModel dx="1010" dy="1113" grid="1" gridSize="10" guides="1" tooltips="1" connect="1" arrows="1" fold="1" page="1" pageScale="1" pageWidth="827" pageHeight="1169" math="0" shadow="0">
            <root>
                <mxCell id="0"/>
                <mxCell id="1" parent="0"/>
                <mxCell id="2" value="User" style="shape=umlActor;verticalLabelPosition=bottom;verticalAlign=top;html=1;outlineConnect=0;" vertex="1" parent="1">
                    <mxGeometry x="10" y="10" width="30" height="60" as="geometry"/>
                </mxCell>
                <mxCell id="11" style="edgeStyle=none;html=1;entryX=0.5;entryY=1;entryDx=0;entryDy=0;endArrow=block;endFill=0;" edge="1" parent="1" source="4" target="9">
                    <mxGeometry relative="1" as="geometry"/>
                </mxCell>
                <mxCell id="12" value="" style="edgeStyle=none;html=1;endArrow=none;endFill=0;startArrow=none;startFill=0;entryX=0;entryY=0.5;entryDx=0;entryDy=0;entryPerimeter=0;" edge="1" parent="1" source="4" target="20">
                    <mxGeometry relative="1" as="geometry">
                        <mxPoint x="600" y="140" as="targetPoint"/>
                    </mxGeometry>
                </mxCell>
                <mxCell id="4" value="&lt;b&gt;&amp;nbsp;Repository&lt;/b&gt;&lt;br&gt;list()&lt;br&gt;add()" style="rounded=1;whiteSpace=wrap;html=1;" vertex="1" parent="1">
                    <mxGeometry x="420" y="110" width="120" height="60" as="geometry"/>
                </mxCell>
                <mxCell id="10" style="edgeStyle=none;html=1;entryX=0;entryY=0.5;entryDx=0;entryDy=0;" edge="1" parent="1" source="5" target="9">
                    <mxGeometry relative="1" as="geometry"/>
                </mxCell>
                <mxCell id="5" value="&lt;b&gt;Use case&lt;/b&gt;&lt;br&gt;&amp;nbsp;room_list()&lt;br&gt;price_all()" style="rounded=1;whiteSpace=wrap;html=1;" vertex="1" parent="1">
                    <mxGeometry x="240" y="10" width="120" height="60" as="geometry"/>
                </mxCell>
                <mxCell id="16" value="" style="edgeStyle=none;html=1;startArrow=none;startFill=0;endArrow=classic;endFill=1;" edge="1" parent="1" source="6" target="4">
                    <mxGeometry relative="1" as="geometry"/>
                </mxCell>
                <mxCell id="6" value="&lt;b&gt;Domain&lt;/b&gt;&lt;br&gt;Room" style="rounded=1;whiteSpace=wrap;html=1;" vertex="1" parent="1">
                    <mxGeometry x="420" y="210" width="120" height="60" as="geometry"/>
                </mxCell>
                <mxCell id="9" value="&lt;b&gt;&amp;lt;Interface&amp;gt;&amp;nbsp;&lt;br&gt;Repository&lt;/b&gt;&lt;br&gt;list()&lt;br&gt;add()" style="rounded=1;whiteSpace=wrap;html=1;" vertex="1" parent="1">
                    <mxGeometry x="420" y="10" width="120" height="60" as="geometry"/>
                </mxCell>
                <mxCell id="14" value="" style="edgeStyle=none;html=1;startArrow=none;startFill=0;endArrow=classic;endFill=1;" edge="1" parent="1" source="13" target="5">
                    <mxGeometry relative="1" as="geometry"/>
                </mxCell>
                <mxCell id="18" value="" style="rounded=0;whiteSpace=wrap;html=1;fillColor=none;dashed=1;" vertex="1" parent="1">
                    <mxGeometry x="400" y="90" width="320" height="100" as="geometry"/>
                </mxCell>
                <mxCell id="13" value="&lt;b&gt;UI&lt;br&gt;&lt;/b&gt;CLI" style="rounded=1;whiteSpace=wrap;html=1;" vertex="1" parent="1">
                    <mxGeometry x="70" y="10" width="120" height="60" as="geometry"/>
                </mxCell>
                <mxCell id="19" value="&lt;font style=&quot;font-size: 10px;&quot;&gt;Storage&lt;/font&gt;" style="text;html=1;strokeColor=none;fillColor=none;align=left;verticalAlign=top;whiteSpace=wrap;rounded=0;dashed=1;spacing=0;" vertex="1" parent="1">
                    <mxGeometry x="402" y="86" width="130" height="30" as="geometry"/>
                </mxCell>
                <mxCell id="20" value="Python&lt;br&gt;List" style="shape=note;whiteSpace=wrap;html=1;backgroundOutline=1;darkOpacity=0.05;fontSize=10;fillColor=none;size=14;" vertex="1" parent="1">
                    <mxGeometry x="610" y="115" width="80" height="50" as="geometry"/>
                </mxCell>
                <mxCell id="34" value="" style="childLayout=tableLayout;recursiveResize=0;shadow=0;fillColor=none;fontSize=10;" vertex="1" parent="1">
                    <mxGeometry x="550" y="210" width="170" height="60" as="geometry"/>
                </mxCell>
                <mxCell id="35" value="" style="shape=tableRow;horizontal=0;startSize=0;swimlaneHead=0;swimlaneBody=0;top=0;left=0;bottom=0;right=0;dropTarget=0;collapsible=0;recursiveResize=0;expand=0;fontStyle=0;fillColor=#f5f5f5;strokeColor=#666666;fontSize=10;fontColor=#333333;" vertex="1" parent="34">
                    <mxGeometry width="170" height="20" as="geometry"/>
                </mxCell>
                <mxCell id="36" value="code" style="connectable=0;recursiveResize=0;strokeColor=inherit;fillColor=none;align=center;whiteSpace=wrap;html=1;fontSize=10;" vertex="1" parent="35">
                    <mxGeometry width="38" height="20" as="geometry">
                        <mxRectangle width="38" height="20" as="alternateBounds"/>
                    </mxGeometry>
                </mxCell>
                <mxCell id="37" value="size" style="connectable=0;recursiveResize=0;strokeColor=inherit;fillColor=none;align=center;whiteSpace=wrap;html=1;fontSize=10;" vertex="1" parent="35">
                    <mxGeometry x="38" width="38" height="20" as="geometry">
                        <mxRectangle width="38" height="20" as="alternateBounds"/>
                    </mxGeometry>
                </mxCell>
                <mxCell id="38" value="price" style="connectable=0;recursiveResize=0;strokeColor=inherit;fillColor=none;align=center;whiteSpace=wrap;html=1;fontSize=10;" vertex="1" parent="35">
                    <mxGeometry x="76" width="37" height="20" as="geometry">
                        <mxRectangle width="37" height="20" as="alternateBounds"/>
                    </mxGeometry>
                </mxCell>
                <mxCell id="47" value="lon,lat" style="connectable=0;recursiveResize=0;strokeColor=inherit;fillColor=none;align=center;whiteSpace=wrap;html=1;fontSize=10;" vertex="1" parent="35">
                    <mxGeometry x="113" width="57" height="20" as="geometry">
                        <mxRectangle width="57" height="20" as="alternateBounds"/>
                    </mxGeometry>
                </mxCell>
                <mxCell id="39" style="shape=tableRow;horizontal=0;startSize=0;swimlaneHead=0;swimlaneBody=0;top=0;left=0;bottom=0;right=0;dropTarget=0;collapsible=0;recursiveResize=0;expand=0;fontStyle=0;fillColor=none;strokeColor=inherit;fontSize=10;" vertex="1" parent="34">
                    <mxGeometry y="20" width="170" height="20" as="geometry"/>
                </mxCell>
                <mxCell id="40" value="aaa" style="connectable=0;recursiveResize=0;strokeColor=inherit;fillColor=none;align=center;whiteSpace=wrap;html=1;fontSize=10;" vertex="1" parent="39">
                    <mxGeometry width="38" height="20" as="geometry">
                        <mxRectangle width="38" height="20" as="alternateBounds"/>
                    </mxGeometry>
                </mxCell>
                <mxCell id="41" value="50" style="connectable=0;recursiveResize=0;strokeColor=inherit;fillColor=none;align=center;whiteSpace=wrap;html=1;fontSize=10;" vertex="1" parent="39">
                    <mxGeometry x="38" width="38" height="20" as="geometry">
                        <mxRectangle width="38" height="20" as="alternateBounds"/>
                    </mxGeometry>
                </mxCell>
                <mxCell id="42" value="990" style="connectable=0;recursiveResize=0;strokeColor=inherit;fillColor=none;align=center;whiteSpace=wrap;html=1;fontSize=10;" vertex="1" parent="39">
                    <mxGeometry x="76" width="37" height="20" as="geometry">
                        <mxRectangle width="37" height="20" as="alternateBounds"/>
                    </mxGeometry>
                </mxCell>
                <mxCell id="48" value="135,35" style="connectable=0;recursiveResize=0;strokeColor=inherit;fillColor=none;align=center;whiteSpace=wrap;html=1;fontSize=10;" vertex="1" parent="39">
                    <mxGeometry x="113" width="57" height="20" as="geometry">
                        <mxRectangle width="57" height="20" as="alternateBounds"/>
                    </mxGeometry>
                </mxCell>
                <mxCell id="43" style="shape=tableRow;horizontal=0;startSize=0;swimlaneHead=0;swimlaneBody=0;top=0;left=0;bottom=0;right=0;dropTarget=0;collapsible=0;recursiveResize=0;expand=0;fontStyle=0;fillColor=none;strokeColor=inherit;fontSize=10;" vertex="1" parent="34">
                    <mxGeometry y="40" width="170" height="20" as="geometry"/>
                </mxCell>
                <mxCell id="44" value="bbb" style="connectable=0;recursiveResize=0;strokeColor=inherit;fillColor=none;align=center;whiteSpace=wrap;html=1;fontSize=10;" vertex="1" parent="43">
                    <mxGeometry width="38" height="20" as="geometry">
                        <mxRectangle width="38" height="20" as="alternateBounds"/>
                    </mxGeometry>
                </mxCell>
                <mxCell id="45" value="100" style="connectable=0;recursiveResize=0;strokeColor=inherit;fillColor=none;align=center;whiteSpace=wrap;html=1;fontSize=10;" vertex="1" parent="43">
                    <mxGeometry x="38" width="38" height="20" as="geometry">
                        <mxRectangle width="38" height="20" as="alternateBounds"/>
                    </mxGeometry>
                </mxCell>
                <mxCell id="46" value="880" style="connectable=0;recursiveResize=0;strokeColor=inherit;fillColor=none;align=center;whiteSpace=wrap;html=1;fontSize=10;" vertex="1" parent="43">
                    <mxGeometry x="76" width="37" height="20" as="geometry">
                        <mxRectangle width="37" height="20" as="alternateBounds"/>
                    </mxGeometry>
                </mxCell>
                <mxCell id="49" value="134,34" style="connectable=0;recursiveResize=0;strokeColor=inherit;fillColor=none;align=center;whiteSpace=wrap;html=1;fontSize=10;" vertex="1" parent="43">
                    <mxGeometry x="113" width="57" height="20" as="geometry">
                        <mxRectangle width="57" height="20" as="alternateBounds"/>
                    </mxGeometry>
                </mxCell>
                <mxCell id="51" value="&lt;b&gt;できること&lt;br&gt;&lt;/b&gt;・部屋のリストを取得する&lt;br&gt;・家賃の合計を取得する" style="text;html=1;strokeColor=none;fillColor=none;align=left;verticalAlign=middle;whiteSpace=wrap;rounded=0;fontSize=10;" vertex="1" parent="1">
                    <mxGeometry x="240" y="80" width="130" height="30" as="geometry"/>
                </mxCell>
            </root>
        </mxGraphModel>
    </diagram>
</mxfile>